<?xml version="1.0" encoding="UTF-8"?><svg id="g" xmlns="http://www.w3.org/2000/svg" viewBox="0 0 400 400"><path d="m367.35,96.86c1.31.76,1.31,1.98,0,2.74h-.08s-36.52,21.09-36.52,21.09h.08c-1.31.75-3.43.75-4.74,0h0s-77.77-44.84-77.77-44.84v-.07c-1.31-.76-1.31-1.98,0-2.74v.07s36.53-21.08,36.53-21.08v-.07c1.3-.76,3.42-.76,4.73,0v.07s77.69,44.91,77.69,44.91" fill="#c0d9f0"/><path d="m368.26,166.3v-68.04l-120.92-23.83v34.82l72.83,42.04h.08c.83.48,1.13,1.15.91,1.76v32.86l4.94,2.82h0c1.31.75,3.43.75,4.74,0h-.08s36.52-21.08,36.52-21.08h.08c.63-.37.98-.86.98-1.37l-.07.04Z" fill="#c0d9f0"/><path d="m328.46,122.24c-1.03,0-2.06-.23-2.87-.7,0,0-.01,0-.02-.01l-77.74-44.83c-.12-.07-.21-.15-.29-.26-.76-.54-1.19-1.27-1.19-2.05,0-.88.54-1.69,1.48-2.24.1-.06.22-.1.33-.12l35.95-20.75c.07-.08.15-.16.24-.21,1.61-.93,4.13-.93,5.74,0,.1.06.19.14.27.22l77.08,44.56c.14.01.29.05.42.13.94.54,1.48,1.36,1.48,2.24s-.54,1.69-1.48,2.24c-.08.04-.16.08-.24.1l-36.08,20.82c-.06.06-.13.11-.2.16-.8.47-1.84.7-2.87.7Zm-1.84-2.42c.92.52,2.47.56,3.47.11.05-.04.1-.08.16-.12l36.52-21.08c.07-.04.14-.07.22-.09.23-.16.34-.32.34-.42,0-.07-.07-.19-.21-.32-.12-.02-.24-.06-.34-.12l-77.7-44.91c-.09-.05-.17-.12-.24-.19-.94-.42-2.34-.41-3.27,0-.06.07-.14.13-.22.18l-36.52,21.08c-.08.05-.17.08-.25.1-.16.13-.24.26-.24.33,0,.11.15.31.48.51.1.06.19.14.27.22l77.51,44.69s.01,0,.02.01Zm40.73-20.23h0,0Z" fill="#151413"/><path d="m116.44,271.86c-.88,0-1.76-.17-2.5-.51-.12-.01-.24-.05-.36-.11l-77.77-44.91c-.1-.06-.18-.13-.25-.21-.74-.53-1.16-1.26-1.16-2.03s.42-1.51,1.17-2.04c.07-.08.15-.15.24-.2l201.19-116.12c.07-.08.15-.16.24-.21,1.61-.93,4.13-.93,5.74,0,.1.06.19.14.27.22l77.29,44.6c.08.02.16.05.22.09.94.54,1.48,1.36,1.48,2.24s-.54,1.69-1.48,2.24c-.08.04-.16.08-.24.1l-201.27,116.24c-.09.05-.18.09-.28.11-.74.34-1.63.51-2.51.51Zm-2.18-2.54c.11.02.21.05.31.11,1,.58,2.74.58,3.73,0,.07-.04.14-.07.21-.09l201.15-116.17c.07-.04.14-.07.22-.09.23-.16.34-.32.34-.42s-.11-.26-.36-.43c-.07-.02-.14-.05-.2-.08l-77.7-44.84c-.09-.05-.17-.12-.24-.19-.94-.42-2.34-.41-3.27,0-.06.07-.14.13-.22.18L37.08,223.42c-.06.06-.13.11-.2.16-.33.19-.48.4-.48.51s.15.31.48.51c.08.04.15.1.21.16l77.18,44.57Z" fill="#151413"/><path d="m34.76,258.61c-.37,0-.72-.2-.9-.55-.25-.5-.04-1.09.45-1.34l.56-.28c.5-.25,1.09-.04,1.34.45.25.5.04,1.09-.45,1.34l-.56.28c-.14.07-.3.1-.45.1Z" fill="#151413"/><path d="m105.53,318.61c-2.17,0-4.35-.12-6.52-.36-.07,0-.14.01-.21,0l-36.45-4.16c-.11-.01-.21-.04-.3-.08-3.21-.41-6.14-1.33-8.5-2.67-.04-.02-.08-.03-.11-.05l-16.43-9.45c-.11-.07-.21-.15-.29-.25-2.38-1.44-4-3.26-4.7-5.27-.01-.04-.03-.09-.04-.13l-7.27-20.82c-.05-.15-.07-.31-.05-.47-2.09-6.68,1.5-13.44,9.69-18.16.48-.28,1.09-.11,1.37.37.28.48.11,1.09-.37,1.37-7.45,4.29-10.69,10.33-8.67,16.16.05.15.07.3.05.45l7.2,20.63s.02.08.03.12c.6,1.58,2,3.03,4.05,4.21.11.06.21.15.28.24l16.03,9.22s.08.03.11.05c2.22,1.28,5.03,2.15,8.14,2.51.1.01.2.04.29.08l36,4.11c.07,0,.14-.01.21,0,10.75,1.24,21.76-.68,29.48-5.13.07-.04.14-.07.22-.09l238.28-137.59.03-.02s.07-.05.11-.07c3.98-2.3,6.38-5.29,6.77-8.44.31-2.53-.7-5.05-2.92-7.3-.14-.05-.28-.13-.39-.24l-3.1-3.03c-.39-.39-.4-1.02-.02-1.41.39-.39,1.02-.4,1.41-.02l2.81,2.74c.14.05.28.12.39.23,2.89,2.78,4.2,5.98,3.8,9.27-.46,3.77-3.19,7.29-7.7,9.9l-.03.02s-.07.05-.11.07l-238.6,137.77c-.07.04-.15.07-.22.09-6.44,3.63-14.98,5.61-23.77,5.61Z" fill="#151413"/><path d="m247.34,110.26c-.55,0-1-.45-1-1v-34.83c0-.55.45-1,1-1s1,.45,1,1v34.83c0,.55-.45,1-1,1Z" fill="#151413"/><path d="m328.46,190.28c-1.02,0-2.03-.23-2.83-.68,0,0-.02,0-.03-.01l-4.94-2.82c-.48-.27-.65-.88-.37-1.36.27-.48.88-.65,1.36-.37l4.9,2.8s.02.01.03.02c.92.53,2.48.57,3.5.12.05-.04.1-.08.16-.12l36.52-21.08c.07-.04.14-.07.22-.09.14-.1.22-.19.28-.26,0-.04,0-.08,0-.12v-68.04c0-.55.45-1,1-1s1,.45,1,1v67.67c.04.11.07.22.07.34,0,.88-.54,1.69-1.48,2.24-.08.04-.16.08-.25.1l-36.07,20.82c-.06.06-.12.11-.2.16-.8.47-1.84.7-2.87.7Z" fill="#151413"/><path d="m116.44,312.68c-1.03,0-2.06-.23-2.87-.7,0,0,0,0,0,0l-77.75-44.83c-.15-.09-.28-.21-.36-.36-.52-.41-.87-.92-1-1.47-.08-.13-.13-.29-.13-.45v-40.75c0-.55.45-1,1-1s1,.45,1,1v40.38c.04.11.07.22.07.34,0,.09.13.3.48.51.13.08.24.18.32.3l77.38,44.62s0,0,0,0c.92.53,2.48.57,3.49.12.05-.04.1-.08.16-.12l201.44-116.27c.07-.04.14-.07.21-.09.14-.09.23-.19.28-.26,0-.04,0-.08,0-.12v-40.82c0-.55.45-1,1-1s1,.45,1,1v40.45c.05.11.07.22.07.34,0,.88-.54,1.69-1.48,2.24-.08.04-.16.08-.25.1l-201,116.01c-.06.06-.12.11-.2.16-.8.47-1.84.7-2.87.7Z" fill="#151413"/><path d="m93.7,349.56h-2.54s-.07,0-.11,0l-.58-.06h-.58s-.07,0-.11,0l-.58-.06h-.58s-.08,0-.12,0l-4.16-.49-1.2-.21s-.08-.01-.12-.02l-1.07-.27-.5-.06s-.08-.01-.12-.02l-3.35-.86-.58-.21-1.04-.28-1.1-.43-.49-.12c-.05-.01-.1-.03-.15-.05l-.49-.21-.98-.32-3.04-1.3-1-.53-.91-.39-3.75-2.01-.93-.61-.83-.44-3.43-2.33-4.02-3.03s-.06-.04-.08-.07l-1.45-1.24-.78-.77-.7-.57-.74-.66-2.86-2.79-3.28-3.63-1.93-2.29-.6-.82-.6-.73-3.44-4.8-3.11-4.88s-.04-.06-.05-.09l-.42-.85-.96-1.63-.89-1.85-.45-.76-.88-1.75-.39-1-.82-1.7-2.49-6.41-1.71-5.64-1.15-4.88-.15-1.05-.2-.83-.72-5.02-.29-4.09v-1.13s-.07-.92-.07-.92v-1.13c0-.55.44-1,1-1s1,.45,1,1v1.06l.07.92v1.13s.28,3.95.28,3.95l.7,4.87.2.83.16,1.07.62,2.81,2.17,7.41,2.45,6.28.81,1.67.39,1,.81,1.6.46.79.88,1.82.96,1.63.43.86,3.63,5.65,2.8,3.84.6.73.6.82,3.77,4.4.64.63,1.34,1.41.67.6,2.12,2.04.74.6.78.77,6.16,4.76,2.5,1.67.83.44.93.61,3.58,1.92.91.39,1,.53,2.88,1.23,1.96.65c.05.01.1.03.15.05l1.02.41.95.25s.07.02.11.03l.98.33,2.73.68.5.06s.08.01.12.02l1.07.27.5.06,1.76.28,2.97.34h.57s.07,0,.11,0l.58.06h.58s.07,0,.11,0l.58.06h2.43l.58-.06s.07,0,.11,0h.58l.58-.06s.07,0,.11,0h.65l2.5-.27.58-.13s.08-.02.12-.02l.65-.06,3.89-.83,3.89-1.23.58-.26.73-.25,2.52-1.09.55-.31.71-.32,1.75-1.02,238.58-137.76.8-.43,1.95-1.28,2.57-1.95.58-.52.63-.5,3.3-3.37,1.94-2.42.38-.58.5-.64,1.23-1.91.32-.65s.04-.07.06-.11l.42-.63,1-1.94,1.73-4.01,1.52-4.71.26-1.32s.02-.08.03-.12l.19-.58.27-1.35.06-.61.29-1.4.13-1.35.16-.8.12-1.2v-.65l.14-1.46v-1.29l.08-.8v-1.24c0-.55.44-1,1-1s1,.45,1,1v1.34l-.08.8v1.24s0,.07,0,.1l-.14,1.41v.61s0,.07,0,.11l-.14,1.33-.16.8-.13,1.31s-.01.08-.02.12l-.28,1.32-.06.61-.3,1.51s-.02.08-.03.12l-.19.58-.27,1.35-1.08,3.55-1.67,4.21-1.73,3.46-.43.65-.33.65s-.04.07-.06.11l-1.24,1.93s-.04.07-.07.1l-.49.63-.38.57-2.02,2.53s-.05.06-.08.09l-3.38,3.46s-.06.06-.09.08l-.63.49-.58.52-3.4,2.54-2.21,1.33-238.58,137.76-1.85,1.07-.71.32-.56.31-2.69,1.17-.73.25-.54.25s-.08.03-.12.04l-4.02,1.27-4.02.86s-.08.01-.12.02l-.65.06-.58.13s-.07.01-.11.02l-2.61.28s-.07,0-.11,0h-.65l-.58.06s-.07,0-.11,0h-.58l-.58.06s-.07,0-.11,0Z" fill="#151413"/><path d="m116.57,312.68c-.55,0-1-.45-1-1v-40.82c0-.55.45-1,1-1s1,.45,1,1v40.82c0,.55-.45,1-1,1Z" fill="#151413"/><path d="m328.6,190.27c-.55,0-1-.45-1-1v-68.03c0-.55.45-1,1-1s1,.45,1,1v68.03c0,.55-.45,1-1,1Z" fill="#151413"/><path d="m116.44,271.86c-.88,0-1.76-.17-2.5-.51-.12-.01-.24-.05-.36-.11l-77.77-44.91c-.1-.06-.18-.13-.25-.21-.74-.53-1.16-1.26-1.16-2.03s.42-1.51,1.17-2.04c.07-.08.15-.15.24-.2l201.19-116.12c.07-.08.15-.16.24-.21,1.61-.93,4.13-.93,5.74,0,.1.06.19.14.27.22l77.29,44.6c.08.02.16.05.22.09.94.54,1.48,1.36,1.48,2.24s-.54,1.69-1.48,2.24c-.08.04-.16.08-.24.1l-201.27,116.24c-.09.05-.18.09-.28.11-.74.34-1.63.51-2.51.51Zm-2.18-2.54c.11.02.21.05.31.11,1,.58,2.74.58,3.73,0,.07-.04.14-.07.21-.09l201.15-116.17c.07-.04.14-.07.22-.09.23-.16.34-.32.34-.42s-.11-.26-.36-.43c-.07-.02-.14-.05-.2-.08l-77.7-44.84c-.09-.05-.17-.12-.24-.19-.94-.42-2.34-.41-3.27,0-.06.07-.14.13-.22.18L37.08,223.42c-.06.06-.13.11-.2.16-.33.19-.48.4-.48.51s.15.31.48.51c.08.04.15.1.21.16l77.18,44.57Z" fill="#151413"/></svg>