<?xml version="1.0" encoding="UTF-8"?><svg id="g" xmlns="http://www.w3.org/2000/svg" viewBox="0 0 400 400"><path d="m268.37,115.95v11.02l37.8,21.8.06-.05c.63.37.86.88.7,1.35v4.38l3.78,2.16h0c1,.58,2.63.58,3.63,0h-.06s50.61-29.2,50.61-29.2v-.06c.49-.28.76-.66.76-1.05v-15.6l-97.27,5.24Z" fill="#c0d9f0"/><path d="m314.28,140.98l50.61-29.25h0c1-.58,1-1.53,0-2.11v.05s-41.59-24.01-41.59-24.01l.06-.05c-1-.58-2.63-.58-3.63,0v.05s-50.61,29.2-50.61,29.2h.05c-1,.58-1,1.53,0,2.11h-.05s41.58,24.01,41.58,24.01v-.06c1,.58,2.62.58,3.63,0" fill="#c0d9f0"/><path d="m314.28,140.98l50.61-29.25h0c1-.58,1-1.53,0-2.11v.05s-41.59-24.01-41.59-24.01l.06-.05c-1-.58-2.63-.58-3.63,0v.05s-50.61,29.2-50.61,29.2h.05c-1,.58-1,1.53,0,2.11h-.05s41.58,24.01,41.58,24.01v-.06c1,.58,2.62.58,3.63,0" fill="none" stroke="#151413" stroke-linecap="round" stroke-linejoin="round" stroke-width="2"/><path d="m306.23,150.82c1-.58,1-1.52,0-2.1l-.06.05-41.53-23.95v-.05c-1-.58-2.62-.58-3.63,0v.05S34.3,255.72,34.3,255.72v-.05c-1.01.58-1.01,1.52,0,2.1h0s41.53,24.01,41.53,24.01h.05c1,.58,2.63.58,3.63,0h-.06s226.72-130.9,226.72-130.9" fill="none" stroke="#151413" stroke-linecap="round" stroke-linejoin="round" stroke-width="2"/><path d="m32.54,261.93c-5.69,3.28-8.36,7.91-7.23,12.5" fill="none" stroke="#151413" stroke-linecap="round" stroke-linejoin="round" stroke-width="2"/><path d="m65.05,297.37c7.96.66,15.99-.89,21.68-4.17" fill="none" stroke="#151413" stroke-linecap="round" stroke-linejoin="round" stroke-width="2"/><line x1="25.27" y1="274.48" x2="27.38" y2="282.97" fill="none" stroke="#151413" stroke-linecap="round" stroke-linejoin="round" stroke-width="2"/><path d="m27.4,282.96c.39,1.58,1.66,3.05,3.62,4.18" fill="none" stroke="#151413" stroke-linecap="round" stroke-linejoin="round" stroke-width="2"/><line x1="31" y1="287.19" x2="43.01" y2="294.11" fill="none" stroke="#151413" stroke-linecap="round" stroke-linejoin="round" stroke-width="2"/><path d="m43.02,294.11c1.96,1.13,4.49,1.86,7.23,2.09" fill="none" stroke="#151413" stroke-linecap="round" stroke-linejoin="round" stroke-width="2"/><line x1="50.25" y1="296.22" x2="65.01" y2="297.41" fill="none" stroke="#151413" stroke-linecap="round" stroke-linejoin="round" stroke-width="2"/><line x1="86.69" y1="293.25" x2="371.22" y2="128.98" fill="none" stroke="#151413" stroke-linecap="round" stroke-linejoin="round" stroke-width="2"/><path d="m371.25,128.93c4.99-2.88,4.99-7.56,0-10.44" fill="none" stroke="#151413" stroke-linecap="round" stroke-linejoin="round" stroke-width="2"/><line x1="371.22" y1="118.54" x2="365.65" y2="115.3" fill="none" stroke="#151413" stroke-linecap="round" stroke-linejoin="round" stroke-width="2"/><line x1="268.37" y1="125.73" x2="267.35" y2="126.33" fill="none" stroke="#151413" stroke-linecap="round" stroke-linejoin="round" stroke-width="2"/><line x1="33.54" y1="261.34" x2="32.46" y2="261.94" fill="none" stroke="#151413" stroke-linecap="round" stroke-linejoin="round" stroke-width="2"/><line x1="268.37" y1="126.98" x2="268.37" y2="115.95" fill="none" stroke="#151413" stroke-linecap="round" stroke-linejoin="round" stroke-width="2"/><path d="m365.65,110.7v15.63-.03c0,.39-.27.77-.75,1.05v.06s-50.61,29.2-50.61,29.2h.06c-1,.58-2.63.58-3.63,0h0s-3.78-2.16-3.78-2.16" fill="none" stroke="#151413" stroke-linecap="round" stroke-linejoin="round" stroke-width="2"/><path d="m33.54,256.75v10.44-.03c0,.39.27.77.75,1.05h0s41.53,24.01,41.53,24.01h.05c1,.58,2.63.58,3.63,0h-.06s226.72-130.9,226.72-130.9l.06-.06c.48-.28.75-.66.75-1.05l-.05.03v-10.44" fill="none" stroke="#151413" stroke-linecap="round" stroke-linejoin="round" stroke-width="2"/><polyline points="78.75 310.82 78.31 311.03 77.88 311.25 77.45 311.52 77.02 311.74 76.53 311.95 76.1 312.17 75.66 312.33 75.18 312.55 74.75 312.71 74.26 312.87 73.83 313.09 73.34 313.2 72.91 313.36 72.42 313.52 71.99 313.63 71.5 313.79 71.07 313.9 70.58 314.01 70.15 314.12 69.66 314.22 69.23 314.33 68.74 314.39 68.31 314.44 67.82 314.55 67.39 314.6 66.9 314.66 66.47 314.66 66.04 314.71 65.61 314.77 65.12 314.77 64.69 314.82 64.26 314.82 63.82 314.82 63.39 314.82 62.96 314.82 62.53 314.82 62.09 314.77 61.71 314.77 61.28 314.71 60.85 314.71 60.47 314.66 60.04 314.6 59.66 314.55 59.23 314.49 58.47 314.39 57.71 314.28 56.96 314.12 56.2 313.95 55.5 313.74 54.74 313.58 54.04 313.36 53.39 313.14 52.68 312.87 52.04 312.66 51.39 312.39 50.79 312.17 50.14 311.9 49.55 311.57 48.95 311.3 48.41 311.03 47.82 310.71 47.28 310.44 46.74 310.12 46.2 309.79 45.66 309.47 45.17 309.14 44.63 308.82 44.14 308.49 43.65 308.11 43.17 307.79 42.74 307.41 42.25 307.09 41.82 306.71 41.33 306.33 40.9 306.01 40.46 305.63 40.09 305.25 39.65 304.87 39.22 304.49 38.84 304.11 38.46 303.68 38.03 303.3 37.65 302.92 37.27 302.49 36.95 302.11 36.57 301.73" fill="none" stroke="#151413" stroke-linecap="round" stroke-linejoin="round" stroke-width="2"/><polyline points="28.46 289.35 27.22 285.46 26.95 284.76 26.73 284 26.51 283.19 26.3 282.43 26.14 281.67 25.92 280.86 25.76 280.05 25.59 279.24 25.49 278.43 25.38 277.62 25.27 276.75 25.16 275.89 25.11 275.02 25.05 274.59 25.05 274.16 25 273.73 25 273.29 25 272.86 25 272.37" fill="none" stroke="#151413" stroke-linecap="round" stroke-linejoin="round" stroke-width="2"/><polyline points="28.46 289.35 28.73 290 28.95 290.6 29.22 291.24 29.49 291.89 29.76 292.49 30.08 293.08 30.41 293.68 30.73 294.27 31.06 294.87 31.43 295.41 31.81 296 32.19 296.54 32.57 297.08 33 297.62 33.44 298.17 33.87 298.65 36.57 301.73" fill="none" stroke="#151413" stroke-linecap="round" stroke-linejoin="round" stroke-width="2"/><polyline points="374.95 123.73 374.95 124.54 374.89 125.3 374.89 126.11 374.78 126.87 374.73 127.68 374.62 128.44 374.51 129.25 374.35 130.01 374.19 130.82 374.03 131.57 373.92 131.95 373.81 132.33 373.7 132.76 373.59 133.14 373.49 133.52 373.32 133.9 373.22 134.28 373.05 134.66 372.89 135.03 372.78 135.47 372.62 135.85 372.46 136.22 372.24 136.6 372.08 136.98 371.86 137.3 371.7 137.68 371.49 138.06 371.27 138.44 371.05 138.82 370.84 139.2 370.62 139.52 370.35 139.9 370.13 140.22 369.86 140.6 369.59 140.93 369.32 141.31 369.05 141.63 368.78 141.96 368.46 142.28 368.19 142.6 367.86 142.93 367.54 143.25 367.21 143.58 366.89 143.85 366.56 144.17 366.24 144.44 365.86 144.71 365.54 144.98 365.16 145.25 364.78 145.52 364.4 145.79 364.02 146.01 363.65 146.28 363.27 146.5 78.75 310.82" fill="none" stroke="#151413" stroke-linecap="round" stroke-linejoin="round" stroke-width="2"/><line x1="312.47" y1="141.36" x2="312.47" y2="157.03" fill="none" stroke="#151413" stroke-linecap="round" stroke-linejoin="round" stroke-width="2"/><line x1="77.78" y1="282.21" x2="77.78" y2="292.65" fill="none" stroke="#151413" stroke-linecap="round" stroke-linejoin="round" stroke-width="2"/></svg>