<?xml version="1.0" encoding="UTF-8"?><svg id="g" xmlns="http://www.w3.org/2000/svg" viewBox="0 0 400 400"><path d="m281.61,180.13c2.55,3.92,3.88,9.2,3.88,15.34l-.02.04v5.33l-89.07,51.41V92.24h.04c0-5.03,2.96-11.13,7.19-14.82,4.23-3.69,8.65-4.02,10.73-.8h-.02s67.25,103.55,67.25,103.55" fill="#c0d9f0"/><path d="m196.39,252.25l-2.55-1.49V90.79l.04-.03c0-4.46,2.33-9.82,5.89-13.58,3.57-3.77,7.67-5.19,10.4-3.62" fill="#c0d9f0"/><path d="m172.85,272.74c-.31,7.47-.48,14.6-.48,20.75h0v5.33l10.97-72.43V66.42h.02c0-5.05-.37-7.04-.9-4.85-.53,2.19-1.07,8.01-1.33,14.14h0s-8.3,197.07-8.3,197.07" fill="#c0d9f0"/><path d="m182.84,60.71l-3.58-.19v-.02c-.26-.01-.61,1.62-.94,4.49-.33,2.87-.61,6.7-.77,10.53h0s-8.3,197.07-8.3,197.07v-.03c-.33,7.47-.49,14.6-.49,20.75v.04s0,5.29,0,5.29l3.62.19" fill="#c0d9f0"/><line x1="193.84" y1="208.19" x2="183.33" y2="214.25" fill="none" stroke="#151413" stroke-linecap="round" stroke-linejoin="round" stroke-width="2"/><path d="m171.41,221.14l-74.79,43.18h0c-6.28,3.61-10.56,8.22-12.3,13.25h0s-9.1,26.28-9.1,26.28h-.02c-.59,1.69.33,3.46,2.46,4.68v.04s18.65,10.74,18.65,10.74h.01c2.13,1.23,5.18,1.76,8.13,1.42h-.03s45.54-5.27,45.54-5.27h0c8.71-1.01,16.71-3.48,22.99-7.11l-.04.02,149.43-86.25h.03c3.52-2.03,3.52-5.32,0-7.35h-.03s-36.94-21.32-36.94-21.32" fill="none" stroke="#151413" stroke-linecap="round" stroke-linejoin="round" stroke-width="2"/><polyline points="75.03 304.88 75.03 305.41 75.07 305.95 75.11 306.52 75.14 307.05 75.18 307.54 75.26 308.08 75.33 308.61 75.45 309.14 75.53 309.68 75.64 310.17 75.75 310.71 75.91 311.24 76.06 311.73 76.21 312.23 76.36 312.76 76.52 313.26 76.71 313.75 76.9 314.25 77.09 314.74 77.31 315.24 77.51 315.73 77.73 316.23 77.96 316.68 78.23 317.18 78.46 317.67 78.72 318.13 78.99 318.59 79.26 319.05 79.52 319.5 79.83 319.96 80.13 320.42 80.4 320.83 80.74 321.29 81.05 321.71 81.35 322.13 81.69 322.55 82.04 322.97 82.38 323.39 82.72 323.77 83.1 324.19 83.45 324.57 83.83 324.95 84.21 325.29 84.59 325.67 85.01 326.01 85.39 326.36 85.81 326.7 86.23 327.04 86.64 327.38 87.1 327.69 87.52 327.99 87.98 328.3 88.43 328.57 88.89 328.83 89.39 329.1 89.84 329.37 90.34 329.59 90.83 329.82 91.37 330.05 91.86 330.24 92.39 330.43 92.66 330.51 92.97 330.58 93.23 330.7 93.5 330.77 93.77 330.81 94.07 330.89 126.67 338.31 127.12 338.39 127.58 338.5 128.04 338.58 128.5 338.69 128.99 338.77 129.45 338.85 129.94 338.92 130.4 339 130.89 339.08 131.39 339.15 131.88 339.19 132.38 339.27 132.87 339.3 133.41 339.34 133.9 339.38 134.44 339.42 134.93 339.46 135.46 339.49 136 339.49 136.53 339.53 137.06 339.53 137.6 339.53 138.13 339.53 138.7 339.53 139.23 339.49 139.81 339.49 140.34 339.46 140.91 339.42 141.48 339.38 142.05 339.34 142.62 339.27 143.19 339.23 143.77 339.15 144.34 339.08 144.91 339 145.48 338.89 146.09 338.81 146.66 338.69 147.23 338.58 147.84 338.47 148.41 338.31 149.02 338.2 149.59 338.05 150.2 337.9 150.77 337.7 151.38 337.55 151.95 337.36 152.56 337.17 153.13 336.98 153.74 336.79 154.31 336.56 154.92 336.33 155.49 336.11 156.07 335.88 156.68 335.65 157.25 335.38 157.82 335.12 158.39 334.85 158.96 334.58 159.53 334.32 160.1 334.01 160.67 333.71 161.21 333.4 161.78 333.1 311.17 246.84 311.63 246.58 312.04 246.31 312.46 246.04 312.88 245.74 313.3 245.44 313.72 245.13 314.14 244.83 314.52 244.52 314.9 244.18 315.28 243.84 315.66 243.49 316.04 243.15 316.39 242.81 316.73 242.43 317.07 242.05 317.41 241.67 317.76 241.28 318.06 240.9 318.4 240.48 318.71 240.07 318.98 239.69 319.28 239.27 319.58 238.85 319.85 238.39 320.12 237.97 320.38 237.55 320.61 237.1 320.88 236.64 321.11 236.22 321.34 235.76 321.56 235.31 321.75 234.81 321.98 234.35 322.17 233.9 322.36 233.4 322.55 232.94 322.75 232.45 322.9 231.95 323.05 231.5 323.2 231 323.35 230.51 323.51 230.01 323.66 229.52 323.77 228.98 323.89 228.49 324 227.99 324.12 227.46 324.23 226.97 324.31 226.43 324.42 225.94 324.5 225.4 324.57 224.87 324.61 224.38 324.69 223.84 324.76 223.31 324.8 222.78 324.84 222.24 324.88 221.71 324.92 221.18 324.95 220.64 324.95 220.07 324.99 219.54 324.99 219.01 324.99 218.47" fill="none" stroke="#151413" stroke-linecap="round" stroke-linejoin="round" stroke-width="2"/><path d="m196.39,252.25l-2.55-1.49V90.79l.04-.03c0-4.46,2.33-9.82,5.89-13.58,3.57-3.77,7.67-5.19,10.4-3.62" fill="none" stroke="#151413" stroke-linecap="round" stroke-linejoin="round" stroke-width="2"/><line x1="212.69" y1="75.06" x2="210.14" y2="73.58" fill="none" stroke="#151413" stroke-linecap="round" stroke-linejoin="round" stroke-width="2"/><path d="m182.84,60.71l-3.58-.19v-.02c-.26-.01-.61,1.62-.94,4.49-.33,2.87-.61,6.7-.77,10.53h0s-8.3,197.07-8.3,197.07v-.03c-.33,7.47-.49,14.6-.49,20.75v.04s0,5.29,0,5.29l3.62.19" fill="none" stroke="#151413" stroke-linecap="round" stroke-linejoin="round" stroke-width="2"/><path d="m281.61,180.13c2.55,3.92,3.88,9.2,3.88,15.34l-.02.04v5.33l-89.07,51.41V92.24h.04c0-5.03,2.96-11.13,7.19-14.82,4.23-3.69,8.65-4.02,10.73-.8h-.02s67.25,103.55,67.25,103.55" fill="none" stroke="#151413" stroke-linecap="round" stroke-linejoin="round" stroke-width="2"/><path d="m172.85,272.74c-.31,7.47-.48,14.6-.48,20.75h0v5.33l10.97-72.43V66.42h.02c0-5.05-.37-7.04-.9-4.85-.53,2.19-1.07,8.01-1.33,14.14h0s-8.3,197.07-8.3,197.07" fill="none" stroke="#151413" stroke-linecap="round" stroke-linejoin="round" stroke-width="2"/></svg>