<?xml version="1.0" encoding="UTF-8"?><svg id="g" xmlns="http://www.w3.org/2000/svg" viewBox="0 0 400 400"><path d="m138.26,188.71c-1.64.94-1.64,2.48,0,3.42v.04s38.53,22.23,38.53,22.23h.03c1.64.95,4.29.95,5.93,0h-.01s53.38-30.8,53.38-30.8v-.04c1.65-.94,1.65-2.48.01-3.42v.05s-38.57-22.28-38.57-22.28h.01c-1.64-.95-4.29-.95-5.93,0h-.03s-53.34,30.84-53.34,30.84" fill="#c0d9f0"/><path d="m237.32,181.87v17.13l.04-.02c0,.64-.44,1.26-1.23,1.71v.04s-53.4,30.8-53.4,30.8h.01c-1.64.95-4.29.95-5.93,0h-.03s-38.52-22.23-38.52-22.23v-.04c-.8-.45-1.24-1.07-1.24-1.71v.02-17.13" fill="#c0d9f0"/><path d="m138.26,188.71c-1.64.94-1.64,2.48,0,3.42v.04s38.53,22.23,38.53,22.23h.03c1.64.95,4.29.95,5.93,0h-.01s53.38-30.8,53.38-30.8v-.04c1.65-.94,1.65-2.48.01-3.42v.05s-38.57-22.28-38.57-22.28h.01c-1.64-.95-4.29-.95-5.93,0h-.03s-53.34,30.84-53.34,30.84" fill="none" stroke="#151413" stroke-linecap="round" stroke-linejoin="round" stroke-width="2"/><path d="m76.5,252.71c-2.48,2.38-1.83,5.43,1.58,7.4" fill="none" stroke="#151413" stroke-linecap="round" stroke-linejoin="round" stroke-width="2"/><path d="m88.77,266.27c3.41,1.97,8.69,2.34,12.82.91" fill="none" stroke="#151413" stroke-linecap="round" stroke-linejoin="round" stroke-width="2"/><line x1="121.24" y1="209.7" x2="76.51" y2="252.74" fill="none" stroke="#151413" stroke-linecap="round" stroke-linejoin="round" stroke-width="2"/><line x1="101.54" y1="267.2" x2="176.13" y2="241.38" fill="none" stroke="#151413" stroke-linecap="round" stroke-linejoin="round" stroke-width="2"/><path d="m296.37,129.33c-1.11-.64-2.46-1.13-3.94-1.43" fill="none" stroke="#151413" stroke-linecap="round" stroke-linejoin="round" stroke-width="2"/><path d="m317.75,142.53c-.52-.86-1.37-1.63-2.48-2.28" fill="none" stroke="#151413" stroke-linecap="round" stroke-linejoin="round" stroke-width="2"/><line x1="315.24" y1="140.25" x2="296.38" y2="129.38" fill="none" stroke="#151413" stroke-linecap="round" stroke-linejoin="round" stroke-width="2"/><path d="m137.03,197.97c-6.06,3.5-11.35,7.42-15.76,11.66" fill="none" stroke="#151413" stroke-linecap="round" stroke-linejoin="round" stroke-width="2"/><path d="m176.13,241.36c7.35-2.55,14.13-5.6,20.19-9.1" fill="none" stroke="#151413" stroke-linecap="round" stroke-linejoin="round" stroke-width="2"/><line x1="262.57" y1="125.52" x2="202" y2="160.49" fill="none" stroke="#151413" stroke-linecap="round" stroke-linejoin="round" stroke-width="2"/><line x1="137.03" y1="198.03" x2="136.99" y2="198.03" fill="none" stroke="#151413" stroke-linecap="round" stroke-linejoin="round" stroke-width="2"/><line x1="196.32" y1="232.28" x2="321.89" y2="159.78" fill="none" stroke="#151413" stroke-linecap="round" stroke-linejoin="round" stroke-width="2"/><path d="m273.48,124.04c-3.81-.77-8.05-.22-10.9,1.43" fill="none" stroke="#151413" stroke-linecap="round" stroke-linejoin="round" stroke-width="2"/><path d="m321.93,159.73c2.85-1.65,3.82-4.09,2.48-6.29" fill="none" stroke="#151413" stroke-linecap="round" stroke-linejoin="round" stroke-width="2"/><line x1="324.38" y1="153.47" x2="317.72" y2="142.51" fill="none" stroke="#151413" stroke-linecap="round" stroke-linejoin="round" stroke-width="2"/><line x1="292.43" y1="127.92" x2="273.48" y2="124.1" fill="none" stroke="#151413" stroke-linecap="round" stroke-linejoin="round" stroke-width="2"/><line x1="78.06" y1="260.15" x2="88.76" y2="266.27" fill="none" stroke="#151413" stroke-linecap="round" stroke-linejoin="round" stroke-width="2"/><path d="m237.32,181.87v17.13l.04-.02c0,.64-.44,1.26-1.23,1.71v.04s-53.4,30.8-53.4,30.8h.01c-1.64.95-4.29.95-5.93,0h-.03s-38.52-22.23-38.52-22.23v-.04c-.8-.45-1.24-1.07-1.24-1.71v.02-17.13" fill="none" stroke="#151413" stroke-linecap="round" stroke-linejoin="round" stroke-width="2"/><polyline points="324.96 155.47 324.96 155.92 324.96 156.31 324.91 156.76 324.91 157.2 324.91 157.6 324.87 158.05 324.82 158.44 324.82 158.89 324.78 159.29 324.73 159.73 324.69 160.13 324.6 160.53 324.56 160.97 324.47 161.37 324.42 161.82 324.33 162.22 324.25 162.62 324.16 163.06 324.07 163.46 323.98 163.86 323.89 164.26 323.76 164.66 323.67 165.1 323.54 165.5 323.4 165.9 323.27 166.3 323.14 166.7 322.96 167.1 322.83 167.5 322.65 167.85 322.51 168.25 322.34 168.65 322.16 169.05 321.98 169.4 321.76 169.8 321.58 170.2 321.36 170.56 321.14 170.91 320.92 171.31 320.7 171.67 320.47 172.02 320.25 172.38 319.99 172.73 319.72 173.09 319.45 173.44 319.19 173.8 318.92 174.11 318.65 174.46 318.34 174.77 318.03 175.13 317.72 175.44 317.41 175.75 317.1 176.06 316.79 176.33 316.44 176.64 316.13 176.9 315.77 177.21 315.42 177.48 315.06 177.75 314.71 178.01 314.35 178.23 313.95 178.5 313.6 178.72 313.2 178.94 187.62 251.45 186.91 251.85 186.2 252.25 185.53 252.65 184.82 253 184.07 253.4 183.36 253.76 182.65 254.11 181.94 254.47 181.19 254.82 180.48 255.13 179.77 255.49 179.01 255.8 178.3 256.11 177.55 256.42 176.84 256.69 176.08 257 175.33 257.26 174.62 257.53 173.86 257.8 173.15 258.06 172.4 258.33 171.65 258.55 170.94 258.82 170.18 259.04 169.47 259.26 168.72 259.48 168.01 259.66 167.25 259.88 166.54 260.06 165.79 260.24 165.08 260.41 164.37 260.59 96.17 275.99 95.81 276.03 95.46 276.12 95.1 276.17 94.75 276.21 94.39 276.26 94.04 276.26 93.68 276.3 93.37 276.3 93.02 276.3 92.71 276.3 92.35 276.26 92.04 276.26 91.73 276.21 91.37 276.17 91.06 276.12 90.75 276.08 90.44 276.03 90.18 275.99 89.87 275.9 89.6 275.81 89.29 275.77 89.02 275.68 88.76 275.59 88.45 275.5 88.18 275.41 87.91 275.28 87.69 275.19 87.42 275.1 87.16 274.97 86.94 274.88 86.67 274.75 86.45 274.61 86.18 274.53 85.96 274.39 85.74 274.26 85.52 274.13 85.29 273.99 85.07 273.86 84.63 273.59 84.23 273.33 83.83 273.02 83.43 272.71 83.03 272.4 82.68 272.08 82.32 271.77 81.97 271.46 81.61 271.11 81.3 270.8 80.99 270.44 80.64 270.09 80.37 269.73 80.06 269.38 79.75 269.02 79.48 268.62 79.22 268.27 78.95 267.87 78.68 267.51 78.42 267.11 78.2 266.72 77.93 266.32 77.71 265.92 77.49 265.52 77.31 265.12 77.09 264.67 76.91 264.27 76.73 263.83 76.55 263.39 76.38 262.99 76.2 262.54 76.07 262.1 75.89 261.66 75.75 261.17 75.67 260.73 75.53 260.28 75.44 259.79 75.31 259.31 75.27 258.86 75.18 258.37 75.13 257.89 75.09 257.4 75.04 256.86 75 256.38 75 256.11 75 255.84" fill="none" stroke="#151413" stroke-linecap="round" stroke-linejoin="round" stroke-width="2"/><line x1="179.85" y1="215.11" x2="179.85" y2="232.2" fill="none" stroke="#151413" stroke-linecap="round" stroke-linejoin="round" stroke-width="2"/></svg>