<svg id="a" xmlns="http://www.w3.org/2000/svg" viewBox="0 0 48 48">
    <rect x="8.15" y="14.07" width="8" height="24" rx="2" ry="2" transform="translate(-4.34 2.51) rotate(-10)"
          fill="#c96b60"/>
    <path d="m31.04,6.5l-11.82,2.08c-1.09.19-1.81,1.23-1.62,2.32l2.25,12.77c.24,1.37,1.77,2.08,2.97,1.38l11.06-6.38c.73-.42,1.12-1.25.97-2.08l-1.49-8.47c-.19-1.09-1.23-1.81-2.32-1.62Z"
          fill="#3a7778"/>
    <path d="m24.78,40.09l4.21-.74c1.09-.19,1.81-1.23,1.62-2.32l-1.4-7.95c-.24-1.37-1.77-2.08-2.97-1.38l-3.94,2.27c-.73.42-1.12,1.25-.97,2.08l1.13,6.42c.19,1.09,1.23,1.81,2.32,1.62Z"
          fill="#ccc5c0"/>
    <path d="m32.34,25.69l1.19,6.76c.19,1.09,1.23,1.81,2.32,1.62l3.99-.7c1.09-.19,1.81-1.23,1.62-2.32l-1.45-8.22c-.24-1.37-1.77-2.08-2.97-1.38l-3.74,2.16c-.73.42-1.12,1.25-.97,2.08Z"
          fill="#edb56d"/>
</svg>