<svg xmlns="http://www.w3.org/2000/svg" viewBox="0 0 48 48">
    <rect x="8" y="12" width="8" height="20" rx="2" ry="2"/>
    <path d="m31.95,27.14l.04,6.87c0,1.1.9,1.99,2,1.99h4.01c1.1,0,2-.9,2-2v-8.34c0-1.39-1.38-2.35-2.68-1.88l-4.05,1.47c-.79.29-1.32,1.05-1.32,1.89Z"/>
    <path d="m34,8h-12c-1.1,0-2,.9-2,2v12.97c0,1.39,1.38,2.35,2.68,1.88l12-4.37c.79-.29,1.32-1.04,1.32-1.88v-8.6c0-1.1-.9-2-2-2Z"/>
    <path d="m22,40h4.27c1.1,0,2-.9,2-2v-8.07c0-1.39-1.38-2.35-2.68-1.88l-4.27,1.55c-.79.29-1.32,1.04-1.32,1.88v6.52c0,1.1.9,2,2,2Z"/>
</svg>